# xmcd
#
# Track frame offsets:
#	150
#	17371
#	35833
#	53067
#	73074
#	91206
#	105695
#	122841
#	142545
#	158203
#	174962
#	190594
#	205819
#	220613
#	237489
#	251141
#	267268
#	283780
#
# Disc length: 4022 seconds
#
# Revision: 4
# Processed by: cddbd v1.5.1PL0 Copyright (c) Steve Scherf et al.
# Submitted via: audiograbber 1.83.01
#
DISCID=fa0fb412
DTITLE=2003-11 Country Radio - 2003-11 Country Radio
DYEAR=2003
DGENRE=Country
TTITLE0=Shania Twain - She's Not Just A Pretty Face
TTITLE1=Kenny Chesney - There Goes My Life
TTITLE2=Clint Black - Spend My Time
TTITLE3=Tim McGraw - Watch The Wind Blow By
TTITLE4=Warren Brothers, The - Sell A Lot Of Beer
TTITLE5=Kevin Denney - A Year At A Time
TTITLE6=Rebecca Lynn Howard - I Need A Vacation
TTITLE7=Cross Canadian Ragweed - Constantly
TTITLE8=Buddy Jewell - Sweet Southern Comfort
TTITLE9=Sheryl Crow - First Cut Is The Deepest, The
TTITLE10=Kenny Rogers - Handprints On The Wall
TTITLE11=Sonya Isaacs - No Regrets Yet
TTITLE12=James Taylor and Alison Krauss - How's The World Treating You
TTITLE13=Tracy Lawrence - Paint Me A Birmingham
TTITLE14=Reckless Kelly - Nobody's Girl
TTITLE15=Billy Ray Cyrus - Always Sixteen
TTITLE16=Patty Loveless - On Your Way Home
TTITLE17=Amanda Wilkinson - Gone From Love Too Long
EXTD=
EXTT0=
EXTT1=
EXTT2=
EXTT3=
EXTT4=
EXTT5=
EXTT6=
EXTT7=
EXTT8=
EXTT9=
EXTT10=
EXTT11=
EXTT12=
EXTT13=
EXTT14=
EXTT15=
EXTT16=
EXTT17=
PLAYORDER=
